<?xml version="1.0" encoding="utf-8"?>
<!-- Generator: Adobe Illustrator 27.5.0, SVG Export Plug-In . SVG Version: 6.00 Build 0)  -->
<svg version="1.1" xmlns="http://www.w3.org/2000/svg" xmlns:xlink="http://www.w3.org/1999/xlink" x="0px" y="0px"
	 viewBox="0 0 500 500" style="enable-background:new 0 0 500 500;" xml:space="preserve">
<g id="BACKGROUND">
	<rect style="fill:#FFFFFF;" width="500" height="500"/>
</g>
<g id="OBJECTS">
	<g>
		<g>
			<polygon points="142.225,344.763 142.225,344.77 142.219,344.763 			"/>
			<path d="M142.258,344.776c-0.007,0-0.02-0.007-0.033-0.007h0.02C142.245,344.77,142.251,344.776,142.258,344.776z"/>
			<path d="M141.943,344.645v0.007c0-0.007-0.007-0.007-0.013-0.007C141.936,344.645,141.936,344.645,141.943,344.645z"/>
			<path d="M141.995,344.671c-0.013-0.007-0.026-0.013-0.039-0.013c0,0-0.007,0-0.007-0.007c0,0,0,0,0.007,0
				C141.969,344.651,141.982,344.658,141.995,344.671z"/>
		</g>
		<path d="M94.49,208.517c-0.947-2.221-2.299-4.842-3.931-6.607c-1.913-1.577-4.635,0.842-3.369,2.958
			c1.169,1.723,2.316,3.474,3.113,5.405c0.352,0.931,0.554,1.945,1.107,2.756c1.026,1.522,3.572,0.975,4.003-0.778
			C95.722,210.951,94.861,209.725,94.49,208.517z"/>
		<path d="M152.104,216.039c-0.717-0.735-1.735-0.709-2.689-0.674c-0.953,0.026-1.906,0.098-2.849,0.236
			c-2.558,0.314-5.045,0.994-7.462,1.879c-1.31,0.545-2.816,0.766-4.01,1.524c-2.005,1.447-0.369,4.69,1.999,4.012
			c3.986-1.482,9.169-3.095,11.632-3.039c0.871-0.116,1.829,0.161,2.642-0.221C152.859,219.249,153.233,217.098,152.104,216.039z"/>
		<path d="M145.346,256.249c-2.284-1.663-3.034,0.107-4.431,0.837c-0.176,0.063-0.719,0.267-1.016,0.336
			c-1.326,0.303-0.865,0.219-2.996,0.321c-3.575-0.064-4.559-0.255-7.221-0.803c-1.662-0.332-3.323-0.684-4.892-1.343
			c-1.544-0.468-6.565-3.171-9.938-4.282c-4.805-1.547-7.623-0.866-11.549-2.233c-1.653-0.588-1.848-0.541-4.037-1.968
			c-0.265-0.2-0.247-0.183-0.139-0.099c-0.914-0.76-1.593-1.848-2.662-2.36c-2.237-1.037-4.272,1.99-2.505,3.717
			c4.131,4.809,10.182,6.015,16.201,6.515c0.583,0.103,1.917,0.343,2.252,0.488c1.021,0.277,2.029,0.607,3.008,1.008
			c3.373,1.532,6.69,3.249,10.237,4.348c4.832,1.141,9.878,2.121,14.834,1.251C142.888,261.497,147.818,259.188,145.346,256.249z"/>
		<path d="M217.805,168.909c-2.817,2.488-7.4,0.84-7.413-3.237c-0.007-2.915,2.37-5.765,5.358-5.837
			c0.453,0.026,0.86,0.118,1.215,0.256c0.42,0.053,0.84,0.177,1.247,0.394C221.554,162.547,220.517,166.867,217.805,168.909z"/>
		<path d="M128.128,128.995c-2.146-1.717-4.929-2.748-7.692-2.577c-4.256,0.377-8.345,1.926-11.886,4.3
			c-0.324,0.218-0.588,0.396-0.817,0.552c-2.048,1.115-3.992,2.426-5.822,3.878c-2.726,2.257-5.559,4.621-7.077,7.898
			c-4.328,8.253,0.531,15.923,9.911,15.145c6.17-0.713,11.735-4.008,16.212-8.192c3.792-3.42,7.023-7.601,8.874-12.388
			C130.856,134.764,130.475,131.082,128.128,128.995z"/>
		<path d="M310.047,295.214c-1.036-3.367-2.985-6.415-5.377-8.981c-4.825-4.77-13.407-6.67-21.232-3.507
			c-2.85,1.063-5.245,3.01-7.648,4.826c-3,2.393-5.936,4.864-8.78,7.441c-4.414,4-9.075,7.45-9.251,7.54
			c-2.951,0.388-7.341,1.122-9.923,1.493c-5.82,0.833-11.488,2.387-16.943,4.574c-7.281,2.706-14.636,5.699-20.674,10.702
			c-2.194,1.955-4.01,4.321-5.774,6.661c-1.457,2.25-2.479,4.747-3.313,7.286c-1.456,4.897-2.322,10.417-0.229,15.253
			c2.705,6.576,9.375,11.025,16.311,11.968c5.293,0.779,10.478-0.791,15.562-2.059c3.406-0.719,6.422-1.117,11.038-0.964
			c3.548,0.262,4.243,0.515,8.055,0.954c6.98,0.544,14.109,0.835,21.006-0.575c11.784-2.051,21.873-13.818,28.238-23.347
			c5.586-9.276,9.51-19.821,9.54-30.751C310.719,300.886,310.694,297.993,310.047,295.214z M294.497,336.039
			c-3.589,4.854-9.23,10.583-12.678,12.913c-4.45,3.258-7.282,4.056-12.97,4.967c-2.325,0.38-11.689,0.487-16.361-0.02
			c-3.749-0.305-8.567-1.428-13.854-0.834c-7.585,0.383-13.768,3.824-20.128,3.22c-7.725-0.634-15.755-7.261-14.181-16.418
			c0.347-2.624,1.68-7.972,3.583-10.819c1.003-1.799,2.503-3.28,4.654-5.713c2.677-2.561,7.086-5.109,11.77-7.271
			c6.274-2.715,13.879-6.152,22.107-7.699c3.746-0.677,12.005-1.496,13.464-2.223c1.566-0.964,2.744-2.096,3.041-2.262
			c3.949-2.89,7.435-6.323,11.098-9.553c6.422-5.481,11.084-9.888,19.171-9.17c2.666,0.169,8.104,2.088,10.417,6.649
			c2.398,3.896,2.431,5.567,2.489,10.929C306.481,314.453,300.798,327.759,294.497,336.039z"/>
		<path style="fill:#FFFFFF;" d="M217.805,168.909c-2.817,2.488-7.4,0.84-7.413-3.237c-0.007-2.915,2.37-5.765,5.358-5.837
			c0.453,0.026,0.86,0.118,1.215,0.256c0.42,0.053,0.84,0.177,1.247,0.394C221.554,162.547,220.517,166.867,217.805,168.909z"/>
		<path style="fill:#FFFFFF;" d="M115.739,133.457c-1.635-1.95-4.74-1.082-6.313,0.531c-0.85,0.852-1.688,1.819-2.002,3.005
			c-0.519,2.087,1.164,3.936,3.264,3.822c0.978-0.07,2.058-0.56,2.962-1.235c0.464-0.321,0.888-0.706,1.241-1.128
			C115.929,137.099,117.067,135.473,115.739,133.457z"/>
		<g>
			<g>
				<path d="M433.002,214.115c1.563,2.436,2.863,4.504,3.322,5.305C435.759,218.389,434.709,216.623,433.002,214.115z"/>
				<path d="M462.358,294.074c-0.768-8.26-2.318-16.421-3.939-24.55c-1.451-7.984-3.086-15.962-5.561-23.696
					c-3.092-9.494-7.17-18.686-12.206-27.307c-1.353-2.2-2.653-4.334-3.94-6.408c0.04-0.197,0.079-0.4,0.118-0.598
					c0.781-3.953,1.418-7.932,2.101-11.897c4.727-27.695-1.162-56.979-15.01-81.312c-3.079-5.371-6.605-10.473-10.289-15.443
					c-3.539-4.905-7.439-9.619-12.272-13.309c-0.959-0.749-1.97-1.438-2.968-2.127v-0.02c0.854-3.664,0.867-7.465,0.052-11.136
					c-0.63-3.053-1.379-6.087-2.679-8.923c-1.976-4.143-4.813-7.859-7.761-11.352c-3.362-3.585-7.689-6.303-12.37-7.8
					c-3.125-0.873-6.369-1.307-9.606-1.444c-2.331-0.118-4.675,0.046-6.999-0.217c-0.525-0.066-0.203,0-1.661-0.243
					c-1.49-0.256-2.941-0.689-4.347-1.247c-0.919-0.427-1.832-0.88-2.646-1.491c-1.07-0.617-2.541-0.289-3.158,0.808
					c-0.742,1.307,0.053,3.053,0.361,4.406c0.965,3.434,1.839,6.888,2.607,10.374c1.116,4.76,1.747,9.698,3.414,14.307
					c1.707,3.756,3.342,7.754,6.303,10.715c3.276,3.316,7.866,4.419,12.403,4.517c4.432,0.263,8.884,0.171,13.322,0.387
					c0.21,0.013,0.414,0.026,0.604,0.033c0.145,0.171,0.315,0.335,0.506,0.473c1.051,0.998,2.062,2.042,3.106,3.047
					c3.506,3.309,7.078,6.546,10.341,10.092c7.853,8.398,13.171,15.495,18.155,26.132c5.962,12.2,9.461,27.662,8.28,42.206
					c-0.328,4.938-1.097,9.251-3.191,14.983c-0.703,1.523-0.493,1.504-1.681,3.467c-0.374,0.44-0.775,0.84-1.202,1.221
					c-1.044-1.024-2.141-2.049-3.296-3.053c-0.479-0.381-0.952-0.775-1.438-1.169c-1.976-1.76-4.051-3.408-6.231-4.911
					c-4.544-3.132-9.54-5.555-14.583-7.761c-6.559-2.626-13.309-4.878-20.354-5.732c-15.476-2.095-31.155-1.169-46.703-0.453
					c-7.557,0.506-15.121,0.775-22.692,0.473c-2.062-0.02-4.123-0.013-6.185-0.013c-0.007-0.098,0-0.197-0.02-0.295
					c-0.026-0.335-0.059-0.67-0.105-1.005c-0.013-0.184-0.039-0.374-0.066-0.565c1.871,0.545,3.808,0.913,5.732,1.201
					c14.432,1.957,29.776-0.86,42.061-8.844c4.865-3.198,9.435-6.999,12.83-11.766c2.909-4.222,5.41-8.89,6.402-13.959
					c1.162-4.911-0.02-10.42-3.585-14.077c-2.232-2.042-5.082-3.283-7.925-4.222c-5.844-1.681-11.97-1.372-17.984-1.609
					c-8.312-0.433-14.826-0.703-21.884-2.245c-2.883-0.584-5.647-1.615-8.391-2.646c-3.946-1.445-5.036-1.93-8.536-3.716
					c-0.335-0.184-0.663-0.276-0.972-0.309c0.939-4.222,1.228-8.588,0.788-12.928c-0.42-5.863-1.431-14.721-6.802-18.148
					c-4.012-2.318-7.15,0.604-9.921,3.349c-3.27,3.27-6.441,6.651-9.744,9.895c-1.149,1.123-3.145,3.007-3.145,3.007
					c-1.707-1.871-7.584-4.675-9.842-5.542c-4.589-1.76-9.409-2.771-14.254-3.493c-5.351-0.932-10.742-1.55-16.152-2.003
					c-15.817-1.589-31.982-1.143-47.288,3.473c-7.216,1.97-14.366,4.215-21.661,5.87c-0.105-0.053-0.217-0.099-0.335-0.138
					c-1.044-0.998-3.454-2.469-4.051-3.086c-3.263-2.685-6.238-5.699-9.054-8.844c-3.263-3.703-6.192-7.735-9.967-10.952
					c-1.635-1.293-3.303-2.699-5.351-3.257c-4.905-1.149-6.172,3.119-7.15,6.94c-1.418,5.949-2.193,12.081-1.891,18.201
					c0.112,2.607,0.269,5.233,0.558,7.84c-7.131,0.565-14.287,0.781-21.438,0.506c-3.244-0.296-7.354-0.893-11.956-1.898
					c-8.496-1.773-17.8-4.524-26.198-1.024c-4.077,1.635-7.387,5.049-8.706,9.265c-1.536,5.187-1.241,10.814,0.972,15.758
					c1.629,4.104,4.301,7.728,7.249,10.985c3.125,3.322,7.183,5.693,11.523,7.045c1.09,0.322,2.18,0.65,3.283,0.926
					c-5.712,4.452-10.998,9.461-15.686,14.97c-6.861,7.702-12.528,16.579-15.607,26.467c-4.36,12.377-6.014,25.824-3.775,38.811
					c1.037,6.074,3.191,11.871,5.174,17.682c3.834,10.584,9.625,20.505,16.933,29.067c5.515,6.592,12.58,11.635,19.671,16.395
					c0.243,0.145,0.486,0.276,0.722,0.414c0.085,7.754,4.222,14.012,9.934,18.824c-0.19,8.01,1.044,15.069,1.983,21.674
					c1.517,12.094,4.911,23.814,7.295,35.745c1.51,8.68,2.462,15.844,2.909,25.495c0.23,4.964,1.353,37.189,2.541,48.135
					c0.42,3.342,0.407,4.307,1.372,8.069c0.67,2.495,3.342,3.519,5.725,3.362c2.022-0.138,2.791-0.512,3.467-0.479
					c0.624,0.039,2.613,0.611,4.78,1.924c1.346,0.729,2.6,1.641,4.058,2.14c3.802,1.057,7.702-0.145,11.346-1.274
					c8.431-2.219,15.495-10.033,20.486-18.903c3.88-6.605,7.242-13.578,9.35-20.965c0.25-0.821,0.427-1.497,0.552-2.055
					c14.655,5.64,30.262,8.851,45.961,9.448c0.84,0.026,1.681,0.046,2.521,0.066c-0.013,3.782-0.052,7.557-0.125,11.339
					c-0.066,4.754-0.138,9.508-0.145,14.268c0.046,2.653-0.079,5.338,0.368,7.964c1.195,3.723,4.918,1.858,7.196,0.315
					c0.223-0.125,0.998-0.729,1.484-1.116c0.02,0.007,0.04,0.007,0.053,0.013c0.322,0.145,0.644,0.289,0.952,0.447
					c3.513,1.963,6.815,4.353,10.591,5.831c4.622,2.134,10.854,3.848,14.918-0.243c2.81-2.607,4.839-5.89,6.559-9.284
					c0.505-0.965,0.991-1.95,1.458-2.941c0.276-0.269,0.42-0.617,0.46-0.985c4.077-8.962,6.428-18.654,7.249-28.47
					c4.662-0.617,18.391-2.909,18.398-2.594c0.066,6.704,0.282,13.913,0.886,20.597c0.223,1.72,0.19,3.559,1.037,5.121
					c1.162,1.963,3.808,2.134,5.699,1.162c1.07-0.433,1.944-1.202,2.817-1.937c0.059-0.039,0.112-0.079,0.171-0.118
					c0.066-0.02,0.131-0.046,0.197-0.066c0.112-0.026,0.223-0.046,0.335-0.066c0.144-0.013,0.335-0.02,0.519-0.007
					c0.164,0,0.341,0.013,0.486,0.026c1.819,0.23,3.605,0.722,5.305,1.405c1.674,0.709,3.329,1.458,4.997,2.186
					c0.932,0.42,1.878,0.821,2.909,0.853c8.647-0.473,12.213-13.447,14.235-20.354c1.11-3.88,1.471-7.932,1.602-11.95
					c0.013-0.919,0-1.838-0.026-2.758v-0.079c0.072,0.026,0.138,0.052,0.203,0.079c2.738,1.267,5.758,1.819,8.772,1.746
					c0.223,0.007,0.453-0.007,0.683-0.02c0.072,0.637,0.151,1.267,0.23,1.904c0.361,2.843,0.906,5.857,3.027,7.951
					c2.298,2.403,5.824,3.073,8.444,0.775c1.333-1.3,2.232-3.001,2.974-4.695c0.578-1.326,1.018-2.705,1.431-4.091
					c0.052-0.112,0.092-0.23,0.118-0.348c0.965,0.289,1.95,0.512,2.948,0.643c0.644,0.171,1.228,0.007,1.674-0.335
					c0.197,1.09,0.479,2.16,0.946,3.185c1.267,2.41,3.546,4.76,6.408,4.905c2.357-0.164,4.596-1.556,5.968-3.447
					c1.018-1.444,1.589-3.112,1.963-4.826c2.567-0.072,5.226-0.354,7.551-1.444c0.499,1.169,1.123,2.265,1.983,3.23
					c0.808,0.775,1.891,1.714,3.086,1.576c0.131-0.013,0.25-0.039,0.368-0.072c0.433,6.474,0.703,13.014,3.152,19.1
					c0.886,2.068,1.891,4.196,3.5,5.811c2.022,1.825,4.728,2.849,7.433,3.04c2.049,0.158,4.051-0.361,6.047-0.742
					c0.197-0.007,0.394,0.007,0.591,0.02c0.19,0.053,0.742,0.177,1.077,0.302c0.007,0.007,0.02,0.013,0.026,0.013
					c1.464,0.702,2.882,1.497,4.465,1.897c2.725,0.657,5.561,1.143,8.352,0.676c2.259-0.322,4.445-0.991,6.605-1.714
					c2.075-0.696,4.097-1.582,5.771-3.02c6.474-4.918,9.58-12.705,12.331-20.092c2.548-6.75,4.255-13.775,6.185-20.722
					c2.876-10.351,8.733-38.015,9.514-51.017C463.382,324.481,463.697,309.228,462.358,294.074z M377.238,84.281
					c-2.613-0.046-5.233-0.138-7.833-0.407c-0.453-0.105-2.088-0.446-2.456-0.611c-0.25-0.066-0.768-0.263-1.07-0.381
					c-0.098-0.046-0.197-0.085-0.295-0.138c-1.254-0.604-3.27-2.521-3.578-3.073c-2.18-3.355-3.88-6.861-4.622-9.232
					c-1.7-6.868-2.974-13.834-4.767-20.676c0.026,0.007,0.046,0.013,0.072,0.026c4.242,1.543,8.798,1.464,13.243,1.537
					c4.222,0.263,5.85,0.368,10.223,1.884c6.093,2.554,10.052,6.868,14.405,14.025c1.517,2.554,2.036,4.196,2.961,7.958
					c0.755,3.414,1.07,4.189,0.926,8.076c-0.013,0.164-0.033,0.335-0.052,0.506c-0.092,0.597-0.177,1.195-0.283,1.792
					C388.57,84.426,382.878,84.4,377.238,84.281z M422.457,126.927c-4.32-9.56-10.466-18.148-17.643-25.771
					c-3.631-4.051-8.66-8.516-12.324-11.326c0.886,0.144,1.779,0.525,2.679,0.473c7.708,5.016,12.547,11.825,18.142,19.809
					c11.287,16.159,17.813,32.087,21.122,51.562c1.202,7.183,2.035,17.275,1.307,26.349c-0.046,0.69-0.085,1.333-0.138,1.95
					c-0.755-1.51-1.661-3.119-2.679-4.97c-0.939-1.884-1.93-4.196-2.561-7.012c0.689-3.953,0.978-7.978,1.077-11.976
					C431.4,152.547,428.353,139.041,422.457,126.927z M425.701,191.857c0.873-1.372,1.412-2.928,2.062-4.419
					c0.361-0.9,0.683-1.812,0.972-2.738c0.151,0.394,0.309,0.801,0.479,1.215c0.932,2.311,2.397,4.34,3.493,6.566
					c1.064,1.884,1.549,4.576,1.628,7.012c-0.138,0.814-0.283,1.681-0.447,2.633c-0.249,1.451-0.499,2.902-0.762,4.347
					c-2.876-4.38-5.87-8.509-9.416-12.442C424.447,193.374,425.136,192.671,425.701,191.857z M316.7,172.796
					c19.297-0.788,38.745-2.672,57.977-0.112c9.264,1.313,21.838,5.87,31.352,12.029c2.114,1.339,4.117,2.889,6.113,4.642
					c-3.881-1.247-7.781-2.626-11.838-3.152c-2.488-0.282-5.003-0.059-7.459,0.328c-4.845,0.991-9.507,2.705-14.261,4.031
					c-5.154,1.596-12.101,3.139-15.581,3.329c-6.979,0.611-13.985-0.026-20.971-0.256c-8.339-0.506-13.834-0.604-21.424-3.25
					c-7.347-2.58-10.682-8.805-16.402-16.152c-0.354-0.492-0.676-1.011-0.991-1.536C307.712,172.75,312.209,172.888,316.7,172.796z
					 M361.703,128.325c0.171,2.738-0.545,5.811-2.055,9.061c-4.544,10.893-15.187,18.26-24.34,22.009
					c-12.456,4.938-27.596,5.318-37.852,1.609c-0.19-0.092-0.565-0.243-0.821-0.348c-0.223-0.105-0.44-0.21-0.67-0.309
					c-0.02-0.026-0.092-0.059-0.216-0.105c-0.046-0.02-0.177-0.079-0.335-0.151c-0.21-0.368-0.407-0.742-0.598-1.116
					c-0.046-0.138-0.098-0.309-0.131-0.473c-0.052-0.177-0.092-0.361-0.125-0.499c0-0.039-0.007-0.079-0.007-0.112
					c0.164-0.689,0.388-1.372,0.512-2.068c0.414-2.003,0.512-4.071,0.177-6.087c-0.611-2.928-1.005-4.905-0.775-5.397
					c0.584-2.068,1.687-3.913,1.746-6.126c0.565-4.294-3.802-7.249-6.021-8.989c2.495,0.794,5.016,1.49,7.584,2.003
					c3.854,0.716,7.774,0.893,11.687,0.794c5.548-0.158,10.939-1.72,16.185-3.414c6.356-1.963,11.516-3.289,16.914-3.578
					c4.819-0.295,9.133-0.302,12.423,0.506c2.764,0.67,3.23,0.926,5.049,1.806C360.633,127.564,361.158,127.977,361.703,128.325z
					 M153.86,346.792c0.663,1.569,1.569,1.825,1.661,1.924c0.013,0.033,0.02,0.059,0.026,0.092c0,0.072-0.007,0.151-0.013,0.236
					c-0.053,0.322-0.125,0.637-0.217,0.952c-0.046,0.144-0.085,0.269-0.125,0.374c-0.105,0.223-0.223,0.447-0.361,0.65
					c-0.085,0.099-0.177,0.19-0.269,0.276c-0.013,0.007-0.026,0.013-0.039,0.02c-0.151,0.046-0.302,0.092-0.46,0.118
					c-2.685,0.236-12.81-2.554-18.982-4.478c-3.894-1.169-7.807-2.311-11.812-3.047c-4.635-0.84-12.994-2.127-15.318-3.283
					c-1.215-0.578-1.668-0.814-2.029-1.136c0.007-0.007,0.007-0.007,0.013-0.007c0.512-0.19,1.051-0.322,1.589-0.42
					c0.676-0.236,5.68-0.217,8.398,0c3.007,0.197,3.638,0.427,7.15,1.057c4.695,0.808,9.35,1.806,13.946,3.04
					c1.589,0.42,3.198,0.814,4.734,1.412c0.013,0.007,0.026,0.007,0.04,0.013c0.007,0,0.013,0.007,0.02,0.007
					c0.006,0.007,0.006,0.007,0.013,0.007l0.007,0.007h0.007c0.006,0,0.006,0,0.013,0.007c0.007,0,0.013,0.007,0.02,0.007
					c0.007,0,0.013,0.007,0.02,0.007c0,0.007,0.007,0.007,0.013,0.007c0.007,0,0.02,0.007,0.026,0.013c0.007,0,0.007,0,0.013,0
					v0.007c0,0,0,0,0.007,0c0,0,0,0,0.007,0c0.013,0,0.026,0.007,0.039,0.02c0.033,0.007,0.059,0.02,0.092,0.039
					c0.026,0,0.053,0.013,0.079,0.033c0.02,0,0.033,0.007,0.052,0.02h0.007c0.007,0,0.013,0.007,0.02,0.007
					c0,0,0.007,0.007,0.013,0.007c0.985,0.44,1.93,1.05,2.974,1.274c2.305,0.401,3.421-2.869,1.385-4.025
					c-2.685-1.399-5.502-2.482-8.444-3.204c-3.165-0.853-6.33-1.701-9.56-2.278c-6.33-1.234-12.731-2.482-19.205-2.2
					c-0.138-4.557,0.105-7.216,1.444-12.101c1.819-7.144,4.11-11.904,8.418-16.415c3.703-3.171,8.733-6.743,14.537-7.787
					c1.097-0.125,2.206-0.236,3.309-0.125c0.184,0.026,0.302,0.046,0.368,0.052c1.379,0.21,2.725,0.558,4.084,0.88
					c7.328,1.589,10.433,5.318,14.596,11.352c2.049,2.685,3.861,10.144,4.058,12.193c0.847,7.17-2.206,14.458-4.82,20.42
					c-0.21,0.492-0.499,0.992-0.656,1.51C154.011,344.875,153.578,345.873,153.86,346.792z M134.734,351.618
					c-2.639,2.725-5.378,3.257-9.626,1.825c-1.917-0.939-3.237-1.917-3.348-4.031c-0.033-0.387-0.046-0.775-0.053-1.162
					c4.274,0.768,8.45,1.99,12.606,3.244C134.451,351.539,134.595,351.578,134.734,351.618z M157.648,304.455
					c-1.76-2.318-3.684-4.563-6.113-6.205c-0.394-0.296-0.801-0.571-1.214-0.834c0.033,0,0.059,0.007,0.085,0.007
					c15.351,1.103,30.774-0.552,45.843-3.441c6.093-1.097,12.14-2.548,17.931-4.754c6.12-2.245,12.009-5.069,17.912-7.826
					c7.971-3.716,14.931-9.212,21.464-15.029c7.774-6.796,14.038-15.147,19.947-23.558c4.439-6.559,8.562-13.348,11.95-20.512
					c2.876-6.356,5.292-12.928,7.426-19.573c0.151-0.525,1.576-4.852,1.983-6.428c0.099,0.322,0.223,0.742,0.44,1.392
					c2.285,7.341,2.331,13.086,1.359,21.359c-0.86,9.586-6.664,21.772-13.381,31.464c-13.105,19.258-33.453,34.648-55.475,46.092
					c-11.878,5.824-26.178,10.466-40.662,13.44c-6.225,1.313-10.203,1.517-17.144,1.582c-1.727,0.02-3.454,0.039-5.18-0.033
					c-0.906,0.033-1.93-0.204-2.81,0.026c-0.039-0.112-0.085-0.223-0.131-0.328C160.859,308.789,159.283,306.596,157.648,304.455z
					 M220.162,281.868c5.003-5.036,8.424-10.098,10.335-18.135c1.563-6.586,1.74-13.48,4.176-19.849
					c2.672-6.573,7.735-12.265,16.375-13.322c0.361-0.039,1.392-0.151,1.74-0.158c2.291-0.099,4.596-0.007,6.887-0.21
					c2.502-0.223,4.964-0.775,7.321-1.628c2.981-1.09,9.291-3.651,10.302-3.618c0.775-0.092,1.267-0.066,1.714,0.007
					c-1.701,3.23-3.598,6.487-5.739,9.836c-5.745,9.074-10.42,15.285-17.518,23.178c-6.651,6.572-11.819,11.004-19.067,15.725
					c-3.132,1.963-6.461,3.591-9.816,5.134C224.345,279.964,222.211,280.949,220.162,281.868z M311.776,114.78
					c5.739,1.418,11.622,2.009,17.511,2.357c7.558,0.729,16.329,0.131,21.989,1.385c2.876,0.67,3.565,0.985,5.391,1.924
					c1.517,0.893,1.733,0.913,2.278,1.458c-2.521-0.886-5.187-1.32-7.853-1.523c-5.936-0.328-11.957,0.112-17.774,1.372
					c-5.988,1.313-11.7,3.611-17.688,4.911c-4.819,1.136-11.3,0.985-15.725,0.335c-2.987-0.433-5.883-1.333-8.772-2.173
					c-1.287-0.42-2.561-0.86-3.841-1.3c0.21-0.322,0.414-0.637,0.643-0.919c1.366-2.088,2.626-4.248,3.874-6.408
					c1.464-2.482,2.666-5.108,3.592-7.82C300.62,111.024,306.142,113.178,311.776,114.78z M274.199,89.436
					c3.395-3.322,9.816-10.131,11.727-11.759c0.453-0.315,0.906-0.643,1.398-0.899c0.092-0.026,0.184-0.059,0.276-0.079
					c0.236,0.059,0.466,0.138,0.696,0.23c0.099,0.053,0.21,0.105,0.309,0.171c0.026,0.013,0.033,0.02,0.053,0.033
					c0.204,0.197,0.427,0.446,0.545,0.584c0.532,0.709,1.011,1.458,1.385,2.259c0,0,0,0,0,0.007
					c1.812,4.911,2.003,7.459,2.292,12.062c0.282,4.984,0.151,7.071-0.808,11.379c-1.366,6.218-4.787,11.917-8.962,18.063
					c-1.142-0.906-1.011-0.781-1.51-1.175c-0.289-0.243-0.584-0.479-0.834-0.762c-0.112-0.171-0.217-0.348-0.309-0.532
					c-1.385-4.786-4.379-6.382-8.49-8.654c-0.158-0.098-0.315-0.197-0.466-0.302c-0.131-0.118-0.263-0.243-0.387-0.368
					c0-0.046,0-0.085,0.007-0.138c0.026-0.223,0.059-0.479,0.085-0.643c0.276-2.173-0.4-4.452-1.812-6.126
					c-0.814-0.9-1.884-1.537-2.902-2.167c-0.932-0.565-1.891-1.083-2.856-1.582C267.279,95.975,270.831,92.804,274.199,89.436z
					 M172.349,88.628c5.89-1.687,11.773-3.434,17.761-4.714c13.204-2.902,28.896-2.2,43.906-0.532
					c4.833,0.63,12.85,1.589,19.304,3.552c8.398,2.548,10.459,3.697,11.549,4.938c0.026,0,0.053,0,0.079,0.007
					c-0.808,0.722-1.615,1.438-2.443,2.134c-1.011,0.86-2.029,1.701-3.04,2.554c-0.125,0.118-0.263,0.23-0.407,0.341
					c-1.149-0.433-2.252-1.372-3.526-1.024c-1.904,0.46-2.278,3.25-0.552,4.189c3.67,1.635,7.426,3.191,10.729,5.509
					c0.092,0.079,0.197,0.171,0.289,0.269c0.131,0.21,0.388,0.617,0.479,0.867c0.02,0.427,0.348,0.23,0.125,2.291
					c-0.026,0.177-0.052,0.374-0.072,0.525c-0.039,0.584,0.079,1.188,0.263,1.74c0.663,1.819,2.475,2.85,4.071,3.756
					c2.049,1.123,2.686,1.517,3.592,2.324c0.538,0.604,0.473,0.374,1.241,1.937c0.427,1.307,0.932,2.6,1.898,3.598
					c1.983,1.76,1.845,1.333,3.664,3.033c0.591,0.499,0.985,1.287,1.74,1.536c0.099,0.052,0.197,0.092,0.296,0.118
					c0.637,1.385,1.451,2.686,2.528,3.775c2.259,2.029,4.891,3.729,5.752,5.397c0.046,0.105,0.079,0.217,0.112,0.328
					c0.007,0.282,0.02,0.867-0.02,1.202c-0.007,0-0.026,0.105-0.079,0.407c-0.282,1.392-0.965,2.659-1.339,4.025
					c-0.499,2.173-0.118,3.04-0.007,4.031c0.814,3.88,1.09,3.664,1.064,5.975c-0.112,1.806,0.033,0.847-0.381,2.646
					c-0.197,0.794-0.532,1.556-0.578,2.377c-0.039,0.775,0.145,1.549,0.328,2.298c0.21,0.637,0.492,1.247,0.801,1.845
					c0.046,0.177,0.111,0.348,0.197,0.519c0.052,0.112,0.158,0.243,0.269,0.355c0.532,0.959,1.096,1.898,1.549,2.889
					c0.177,0.381,0.355,0.755,0.525,1.136c0.007,0.013,0.013,0.033,0.02,0.046c0.197,0.427,0.328,0.959,0.466,1.464
					c0.118,2.403-0.059,4.813-0.243,7.209c-0.269,3.854-0.801,7.203-1.609,10.893c-1.536,0.407-3.473,1.018-5.594,0.985
					c-5.207-0.079-14.97-2.318-23.125-4.892c-6.874-2.068-13.664-4.393-20.367-6.947c1.556-7.991-1.293-16.947-8.063-21.7
					c-3.388-2.232-7.354-3.703-11.392-4.117c-2.18-0.138-4.36,0.296-6.5,0.663c-1.885,0.394-4.379,1.202-6.369,2.456
					c-1.983,0.847-3.828,1.996-5.502,3.355c-9.711-7.419-18.7-16.907-24.261-29.1c-1.477-3.158-3.815-9.041-5.482-15.371
					c-1.819-6.979-2.659-12.449-3.152-17.209c-0.177-1.957-0.322-3.907-0.492-5.863V88.628z M217.805,168.909
					c-2.817,2.488-7.4,0.84-7.413-3.237c-0.007-2.915,2.37-5.765,5.358-5.837c0.453,0.026,0.86,0.118,1.215,0.256
					c0.42,0.053,0.84,0.177,1.247,0.394C221.554,162.547,220.517,166.867,217.805,168.909z M126.677,71.156
					c0.368-1.687,0.788-3.381,1.431-4.99c0.085-0.177,0.177-0.354,0.276-0.519c0.072,0,0.145,0.007,0.223,0.007
					c0.158,0.039,0.315,0.085,0.473,0.144c3.808,1.983,7.039,6.027,10.643,10.302c2.495,2.994,5.141,5.876,7.991,8.536
					c-2.259-0.177-4.235,0.197-5.259,1.727c-1.11,1.832-0.716,3.953,0.118,5.824c-0.164,0.099-0.328,0.19-0.486,0.289
					c-0.722,0.427-1.504,0.913-1.707,1.786c-0.184,0.604-0.059,1.254,0.263,1.779c-4.045,3.099-8.273,5.916-12.613,8.562
					c-2.561-7.538-2.666-13.834-2.771-22.396C125.489,77.381,125.751,75.687,126.677,71.156z M74.019,94.839
					c5.936,0.512,14.635,3.165,22.39,4.025c4.156,0.598,8.365,0.506,12.547,0.414c4.327-0.151,8.72-0.276,13.014-0.827
					c0.506,2.863,1.234,5.686,2.292,8.404c-4.268,2.495-8.615,4.872-12.948,7.242c-0.079,0-0.158,0.007-0.23,0.013
					c-2.725-0.19-3.316-0.263-4.951-0.532c-5.272-1.044-7.387-2.167-11.851-4.425c-7.964-4.038-15.121-9.606-23.42-12.974
					c-1.247-0.493-2.528-0.9-3.828-1.195C68.904,94.695,71.038,94.715,74.019,94.839z M70.092,128.837
					c-7.413-3.848-14.59-14.773-13.322-23.263c0.282-2.521,1.09-5.016,2.928-6.98c0.538-0.046,6.809-0.105,15.253,4.622
					c7.15,3.999,13.92,8.687,21.418,12.048c2.574,1.188,5.279,2.062,8.056,2.62c-8.109,4.537-16.034,9.409-23.782,14.53
					C79.009,131.996,72.522,130.124,70.092,128.837z M46.061,189.579c0.945-4.688,3.874-13.624,4.872-15.903
					c1.674-4.38,6.572-12.252,8.122-14.104c6.244-8.116,13.493-15.391,21.615-21.635c4.465-3.119,14.721-9.58,21.365-13.44
					c14.176-8.234,29.356-15.167,42.146-25.521c0.67-0.775,0.617-1.753,0.164-2.508c0.23-0.138,0.453-0.282,0.683-0.414
					c4.511-2.396,1.983-4.832,1.471-6.303c-0.066-0.19-0.112-0.387-0.151-0.584c1.95-0.052,5.082,0.735,8.358,1.865
					c0.177,0.039,0.355,0.099,0.532,0.158c0.42,0.86,1.339,1.471,2.607,1.169c3.526-0.729,7.012-1.628,10.479-2.593
					c1.228,21.976,7.518,44.274,23.513,60.13c3.276,3.48,6.835,6.618,10.604,9.494c-1.142,1.307-2.16,2.725-3.04,4.209
					c-1.681,3.211-2.305,6.993-2.239,10.591c0.289,5.798,3.716,11.149,8.372,14.478c3.579,2.344,7.754,3.907,12.016,4.373
					c4.445,0.453,9.054-0.217,13.25-1.733c5.154-2.068,9.081-6.461,11.438-11.405c5.706,2.167,11.451,4.222,17.295,5.988
					c6.395,2.088,12.915,3.808,19.553,4.924c3.611,0.545,8.923,0.781,12.456,0.296c-0.177,0.689-0.355,1.399-0.545,2.134
					c-0.821,3.211-1.556,6.225-1.871,7.131c-0.991,2.83-2.055,5.633-3.099,8.437c-1.438,4.11-3.066,8.076-4.957,12.042
					c-0.394-0.059-0.932-0.125-1.333-0.184c-0.026-0.007-0.079-0.02-0.144-0.026c-1.53-0.289-3.112-0.217-4.622,0.164
					c-4.938,1.405-9.521,4.058-14.661,4.747c-6.73,0.571-14.648-0.775-22.285,5.844c-16.067,14.366-4.977,33.092-21.628,47.78
					c-0.433,0.407-0.873,0.814-1.307,1.221c-0.02-0.624-0.046-1.247-0.092-1.865c-0.808-8.884-3.119-17.603-6.014-26.021
					c-3.591-9.783-8.713-18.969-14.648-27.518c-3.644-5.043-7.387-10.039-11.694-14.543c-6.1-6.047-12.863-11.49-20.111-16.093
					c-11.904-7.511-25.528-11.97-39.343-14.333c-11.096-1.615-22.468-1.596-33.591-0.217c-9.75,1.366-19.238,4.13-28.489,7.439
					c-5.384,2.035-10.4,4.905-15.233,8.01c-0.269,0.164-0.538,0.328-0.801,0.499C45.293,193.459,45.621,191.325,46.061,189.579z
					 M80.808,272.276c-4.228-3.119-6.566-4.635-10.637-8.608c-8.562-8.555-15.292-19.855-19.33-30.505
					c-2.226-6.474-4.642-12.941-5.634-19.744c-0.44-3.014-0.63-7.525-0.492-12.062c4.924-3.027,9.75-6.238,15.029-8.628
					c3.185-1.491,9.737-3.493,14.865-5.016c7.137-2.055,13.801-3.322,19.724-3.841c7.61-0.827,20.092-0.414,25.357,0.236
					c9.672,1.326,21.214,4.629,28.365,7.794c12.062,5.325,20.335,11.549,29.796,20.216c6.027,6.139,9.389,10.689,14.235,17.702
					c8.549,12.895,13.703,24.451,16.868,39.514c0.9,4.471,1.274,6.093,1.517,10.19c0.059,1.169,0.053,2.337,0.046,3.506
					c0.053,0.768-0.171,1.602,0.184,2.311c0.033,0.092,0.072,0.171,0.112,0.25c-0.551,0.19-1.116,0.381-1.707,0.571
					c-3.795,1.254-7.708,2.154-11.622,2.941c-8.628,1.694-15.082,2.758-24.445,3.513c-10.873,1.051-21.845,0.657-32.659-0.847
					c-10.131-1.149-21.129-3.086-32.219-6.796c-8.391-2.909-15.207-5.443-22.042-9.159
					C84.255,274.784,82.535,273.517,80.808,272.276z M89.028,284.915c-0.341-0.939-0.584-1.911-0.788-2.889
					c3.381,1.576,6.874,2.928,10.302,4.393c7.498,2.764,15.108,5.312,22.948,6.94c2.39,0.492,4.8,0.945,7.209,1.353
					c-3.657,1.353-7.006,3.421-10.118,5.778c-1.51,1.051-2.823,2.318-4.005,3.71c-0.46-0.204-0.972-0.335-1.477-0.394
					c-1.044-0.236-2.049-0.617-3.04-1.011c-1.786-0.683-5.87-2.508-8.936-4.445C95.483,294.994,90.847,290.102,89.028,284.915z
					 M102.922,335.965c-0.965-4.288-1.852-8.595-2.502-12.948c-1.064-7.124-1.832-11.379-2.456-18.089
					c-0.066-1.083-0.085-2.167-0.099-3.25c3.769,2.449,7.886,4.399,11.825,5.85c0.65,0.243,1.313,0.453,1.983,0.624
					c-0.289,0.44-0.571,0.886-0.84,1.339c-3.211,5.909-5.003,12.554-5.903,19.192c-0.177,1.944-0.151,3.894-0.085,5.844
					c0.013,0.164,0.013,0.328,0.02,0.499c-0.663,0.217-1.3,0.499-1.884,0.893C102.961,335.932,102.941,335.945,102.922,335.965z
					 M109.324,369.851c-0.604-5.542-1.385-11.063-2.449-16.539c0.394,0.072,0.788,0.164,1.169,0.289
					c2.003,1.031,2.39,1.661,3.664,3.401c1.517,2.088,2.206,2.915,2.909,3.867c2.6,2.83,0.269,9.455-3.421,13.966
					c-0.42,0.479-0.84,0.952-1.267,1.425C109.783,374.119,109.58,371.985,109.324,369.851z M136.546,439.2
					c-2.699,0.755-4.314,1.234-5.831,1.215c-0.263-0.007-0.788-0.059-1.083-0.085c-0.322-0.053-0.637-0.112-0.939-0.217
					c-1.904-0.972-3.644-2.265-5.634-3.086c-1.536-0.657-3.204-1.261-4.891-1.129c-2.416,0.276-1.963,0.519-3.821,0.433
					c-0.158-0.033-0.309-0.072-0.46-0.118c-0.118-0.387-0.21-0.775-0.315-1.162c-0.407-2.068-0.755-4.196-1.051-6.376
					c10.414,4.11,21.871,6.238,32.974,4.084c0.998-0.25,1.976-0.558,2.941-0.906C145.14,435.379,141.319,437.979,136.546,439.2z
					 M252.059,444.052c-2.488,2.699-2.41,2.961-4.34,3.434c-2.147,0.611-7.905-1.497-11.845-3.815
					c-2.167-1.182-4.163-2.672-6.382-3.762c-1.287-0.63-2.718-1.261-4.163-0.84c-1.845,0.801-1.845,1.379-2.731,1.819
					c-0.145,0.092-0.296,0.171-0.44,0.263c-0.085-1.858-0.112-3.716-0.118-5.574c6.723,1.254,13.427,2.62,20.249,3.303
					c3.414,0.381,6.855,0.709,10.302,0.624c0.749-0.033,1.609-0.125,2.488-0.256C254.134,440.934,253.13,442.549,252.059,444.052z
					 M312.872,429.916c-1.307,0.282-12.895-7.439-18.122-3.086c-1.313,1.064-0.381,0.479-1.911,1.392
					c-0.007,0.007-0.013,0.007-0.02,0.007c-0.013-0.072-0.033-0.151-0.046-0.223v-0.039c-0.007-0.013-0.007-0.026-0.007-0.039
					c-0.007-0.02-0.007-0.033-0.007-0.053c-0.026-0.276-0.059-0.552-0.079-0.827c-0.105-1.254-0.19-2.508-0.276-3.762
					c6.238,1.425,12.567,1.051,18.93,0.768c2.843-0.21,5.542-0.709,7.761-1.504C317.212,426.659,315.026,429.581,312.872,429.916z
					 M324.107,397.776c-0.63,1.254-0.138,2.764-0.269,4.117c0.013,2.475-0.479,6.829-0.591,7.295
					c-0.558,2.83-1.307,5.699-2.199,8.365c-1.543,0.755-2.127,1.182-3.401,1.51c-5.364,1.51-12.318,1.005-19.185,1.018
					c-2.705-0.197-2.777-0.217-5.043-0.591c-0.407-0.079-0.834-0.197-1.247-0.23c-0.236-4.471-0.381-10.098-0.414-14.57
					c0.558-0.309,21.47-4.714,32.232-7.866c0.171,0.158,0.348,0.309,0.525,0.453C324.363,397.421,324.218,397.579,324.107,397.776z
					 M385.333,400.107c-0.309-0.676-0.906-2.134-1.536-3.985c-0.328-0.775-0.427-1.694-0.919-2.383
					c-1.11-1.569-3.677-0.269-3.132,1.563c0.243,0.716,0.46,1.445,0.676,2.186c-0.965,0.348-1.957,0.624-2.968,0.821
					c-1.011,0.164-1.024,0.23-2.764,0.322c-0.085-0.368-0.315-0.709-0.624-0.913c-0.663-0.578-1.74-0.466-2.351,0.144
					c-0.676,0.696-0.558,1.773-0.827,2.646c-0.873,4.104-1.917,5.502-4.406,6.185h-0.072c-0.013,0-0.033-0.007-0.046-0.007
					c-0.965-0.512-0.551-0.197-1.779-1.53c-0.053-0.066-0.092-0.118-0.131-0.171c-0.191-0.256-0.374-0.519-0.519-0.808
					c-0.013-0.02-0.02-0.033-0.026-0.052c-0.085-0.236-0.164-0.479-0.236-0.722c-0.683-1.963-0.342-3.342-0.978-6.408
					c-0.873-2.298-4.419-1.569-4.386,0.88c0.052,0.512,0.098,1.024,0.144,1.543c-0.309-0.125-0.65-0.203-0.978-0.295
					c-0.932-0.256-1.871-0.512-2.81-0.781c-1.3-0.374-2.6-0.768-3.874-1.221c-0.604-0.184-1.208-0.565-1.858-0.407
					c-2.193,0.217-2.39,3.447-0.276,4.005c0.86,0.282,1.714,0.598,2.567,0.913c-0.138,0.315-0.269,0.663-0.473,1.005
					c-0.847,1.746-1.576,3.552-2.646,5.174c-0.118,0.19-0.348,0.519-0.447,0.657c-0.118,0.151-0.236,0.289-0.374,0.427
					c-0.013,0.013-0.033,0.026-0.046,0.039c-0.092,0.059-0.184,0.118-0.282,0.177c-0.092,0.046-0.177,0.085-0.243,0.118
					c-0.138,0.052-0.276,0.092-0.42,0.131h-0.085c-0.013,0-0.02-0.007-0.033-0.007c-0.125-0.026-0.387-0.079-0.611-0.151
					c-0.072-0.039-0.171-0.098-0.322-0.19c-0.066-0.046-0.131-0.092-0.184-0.125c-2.193-1.884-1.871-3.664-2.449-7.354
					c-0.243-1.425-0.145-3.086-1.169-4.229c-0.742-0.867-1.957-0.794-2.961-0.505c-0.059,0.007-0.125,0.013-0.203,0.026
					c-3.125,0.125-3.342,0.013-6.034-0.696c-1.339-0.499-1.989-0.689-2.712-1.005c1.668-0.532,3.329-1.077,4.977-1.655
					c16.218-5.581,32.068-12.396,47.077-20.715c0.841,2.436,1.622,4.898,2.265,7.4c2.285,7.964,2.278,13.289,2.974,21.759
					c0.013,0.118,0.02,0.236,0.033,0.348C385.918,401.394,386.18,401.65,385.333,400.107z M409.095,433.672
					c0.092,0.033,0.151,0.053,0.197,0.072C409.24,433.731,409.168,433.704,409.095,433.672z M431.419,427.874l-0.007,0.007
					c-2.547,1.943-3.887,2.088-7.531,3.217c-3.499,0.926-4.688,0.886-7.334,0.44c-2.305-0.486-3.178-0.742-4.182-1.326
					c-2.055-1.136-4.439-1.878-6.763-1.241c-2.613,0.598-3.611,0.611-4.885,0.433c-2.469-0.433-3.88-1.766-4.143-2.121
					c-1.451-2.324-1.858-3.178-2.37-4.747c-0.039-0.098-0.066-0.203-0.098-0.302c11.569,2.469,23.532,4.498,35.324,2.64
					c2.068-0.348,4.176-0.65,6.172-1.294C434.571,424.932,433.33,426.18,431.419,427.874z M444.604,402.74
					c-1.852,5.706-3.375,10.315-5.542,14.826c-0.394,0.243-0.788,0.486-1.189,0.709c-1.005,0.578-3.368,1.333-5.831,1.648
					c-4.497,0.703-5.942,1.037-12.081,1.175c-4.117,0.072-8.214-0.42-12.305-0.808c-1.957-0.21-5.771-0.808-9.271-1.497
					c-1.825-0.276-3.644-0.932-5.476-1.031c-1.123-5.66-0.978-11.411-1.707-18.168c-0.46-6.382-0.794-12.797-2.528-18.995
					c-0.821-3.434-6.776-20.361-7.695-23.342c-2.029-6.737-2.561-10.807-2.974-17.445c-0.171-2.219-0.328-4.432-0.519-6.645
					c-0.197-1.156,0.105-2.528-0.794-3.427c-1.248-1.326-3.736-0.341-3.67,1.523c0.716,7.767,0.591,15.679,2.541,23.283
					c1.156,4.721,2.823,9.271,4.471,13.834c-12.383,6.921-25.154,12.725-37.563,17.393c-19.586,7.57-40.098,12.331-60.807,15.633
					c-4.156,0.709-8.352,1.353-12.587,1.93c0.079-2.298,0.085-4.603,0.007-6.901c-0.079-2.587-0.276-5.167-0.676-7.721
					c-0.361-1.884,0-1.083-0.427-2.456c-0.184-0.552-0.663-1.018-1.208-1.208c-1.011-0.492-2.291-0.013-2.849,0.939
					c-0.65,1.129-0.039,2.469,0.046,3.67c0.151,1.162,0.394,2.817,0.492,5.358c1.208,15.804-3.552,32.009-7.15,39.842
					c-0.401,0.079-0.801,0.151-1.208,0.217c-0.092,0.007-0.177,0.02-0.249,0.026c-2.403,0.309-4.826,0.381-7.242,0.256
					c-4.721-0.21-10.525-0.945-13.624-1.372c-3.178-0.44-6.33-1.031-9.475-1.668c-0.972-0.177-1.95-0.368-2.935-0.512
					c-0.171-0.013-0.341-0.046-0.512-0.072c0.013-1.806,0.033-3.605,0.033-5.41c0.066-5.148,0.013-29.31-0.112-33.965
					c-0.171-1.326,0.309-2.928-0.709-3.979c-1.261-1.346-3.742-0.341-3.677,1.523c0.145,5.443,0.21,10.893,0.217,16.336
					c-3.119-0.092-6.251-0.243-9.389-0.453c-9.593-0.748-22.107-3.276-32.954-6.973c-7.472-2.534-11.99-4.754-19.081-8.293
					c-3.762-1.865-7.485-3.802-11.201-5.765c-1.681-0.775-3.243-1.924-5.01-2.443c-0.985-0.21-2.022,0.532-2.279,1.491
					c-0.256,0.88,0.158,1.891,0.952,2.344c8.68,4.55,17.222,9.402,26.191,13.355c-0.072,0.263-0.145,0.558-0.223,0.88
					c-2.147,8.135-4.754,13.585-9.153,21.267c-0.847,1.484-1.72,2.902-2.62,4.261c-0.085,0.033-0.184,0.066-0.282,0.099
					c-2.088,0.808-4.576,2.029-7.859,2.738c-0.217,0.046-0.624,0.118-0.88,0.158c-7.419,0.834-13.782,0.381-19.941-0.926
					c-2.777-0.637-5.509-1.431-8.187-2.403c-1.097-0.387-2.18-0.801-3.263-1.208c-0.217-0.085-0.447-0.177-0.67-0.23
					c-0.991-9.186-1.733-38.85-1.786-42.015c0.223-0.151,0.42-0.354,0.571-0.63c1.254-1.917,5.279-5.384,7.124-8.831
					c1.72-3.198,2.804-7.012,2.062-10.63c-0.939-2.771-1.412-2.81-3.092-4.754c-2.095-2.193-3.762-6.06-8.01-7.446
					c-0.893-0.302-1.819-0.499-2.751-0.65v-0.013c-0.026-0.007-0.052-0.013-0.072-0.02c-0.007,0-0.02-0.007-0.026-0.007
					c-0.374-1.655-0.762-3.303-1.149-4.951c1.057,0.552,2.2,0.972,3.309,1.346c2.922,0.899,5.942,1.405,8.956,1.904
					c0.02,2.574,0.223,5.253,2.016,7.229c3.414,3.756,9.527,5.154,14.241,3.276c2.436-0.867,4.471-2.613,5.909-4.734
					c0.04-0.072,0.085-0.151,0.125-0.223c3.506,0.991,7.045,1.891,10.624,2.607c4.176,0.794,7.827,0.755,9.507-3.854
					c0.565-1.602,0.886-3.473,0.079-5.043c-0.158-0.309-0.354-0.598-0.571-0.873c0.079-0.158,0.151-0.315,0.217-0.479
					c0.512-1.11,0.998-2.226,1.471-3.355c1.628-3.657,2.83-7.479,3.644-11.398c1.064-4.832,0.545-9.836-0.821-14.57
					c5.41,0.217,10.853,0.177,16.25-0.23c8.07-0.919,15.995-2.817,23.762-5.141c11.411-3.355,22.646-7.544,32.928-13.578
					c20.387-11.464,39.231-26.539,52.107-46.276c6.159-9.639,11.503-20.243,12.646-31.772c0.499-4.892,0.998-9.836,0.191-14.721
					c-0.683-4.064-1.431-8.26-3.342-11.943c-0.44-0.663-1.031-1.451-1.733-1.963c1.28-5.351,2.318-10.748,2.574-16.27
					c0.006-0.072,0.006-0.144,0.013-0.21c1.832,3.342,4.36,6.238,6.507,9.376c7.505,11.339,17.078,13.427,29.855,14.497
					c3.585,0.354,7.19,0.414,10.788,0.584c6.073,0.296,12.18,0.617,18.24-0.039c8.299-0.899,16.231-3.611,24.189-5.988
					c2.016-0.597,4.051-1.169,6.139-1.497c0.558-0.059,2.062-0.217,2.482-0.19c1.044-0.033,2.088-0.013,3.132,0.112
					c5.929,1.044,11.451,3.651,17.367,4.76c0.565,0.112,0.84,0.171,1.044,0.21c0.033,0.033,0.066,0.072,0.099,0.105
					c1.707,1.989,3.263,3.854,4.681,5.594c-3.119,1.95-6.336,5.181-8.936,7.636c-3.539,3.342-6.875,6.894-9.796,10.788
					c-4.885,6.231-9.409,12.856-12.127,20.348c-1.97,5.154-3.283,10.571-3.007,16.126c0.492,7.932,2.357,15.811,5.213,23.217
					c2.751,7.524,8.129,16.205,10.427,21.805c2.869,7.656,3.066,16.08,6.185,23.644c2.738,6.822,8.221,12.245,14.386,16.08
					c6.783,4.668,14.668,7.295,22.462,9.737c1.727,0.525,3.473,0.978,5.167,1.589c0.578,0.19,1.247,0.447,1.924,0.63
					C455.188,354.592,454.95,364.71,444.604,402.74z M456.153,348.578c-2.016-0.722-4.399-1.497-6.454-2.094
					c-8.05-2.613-13.486-4.143-20.282-8.496c-4.031-2.62-5.909-3.67-9.225-7.492c-1.536-1.806-2.659-3.079-4.13-6.152
					c-2.456-4.773-3.598-15.371-5.824-22.396c-1.307-4.169-3.48-7.984-5.509-11.838c-2.324-4.386-4.255-8.483-5.535-11.759
					c-1.641-4.071-2.81-8.293-3.716-12.58c-1.09-5.331-1.49-7.675-1.293-12.895c0.02-3.125,1.162-6.756,2.626-11.037
					c1.812-5.502,5.831-12.022,10.203-17.912c6.251-8.404,16.408-17.774,18.851-19.481c3.125,3.959,5.456,7.183,7.137,9.671
					c1.707,2.508,2.758,4.274,3.322,5.305c0.033,0.059,0.066,0.118,0.092,0.164c1.287,2.39,2.672,4.727,3.933,7.131
					c0.335,0.63,0.663,1.274,0.978,1.917c1.72,3.519,3.099,7.163,4.622,10.762c0.834,1.983,1.622,3.848,1.858,5.817
					c2.613,7.794,4.57,15.935,6.04,24.694c1.445,7.137,3.014,15.725,3.624,21.096c0.926,8.398,1.195,16.861,1.241,25.305
					C458.655,325.525,457.598,342.885,456.153,348.578z"/>
			</g>
		</g>
		<g>
			<path d="M361.912,294.528c0.005-0.002,0.008-0.003,0.013-0.004c0.059-0.026,0.116-0.053,0.174-0.079
				c-0.069,0.023-0.16,0.059-0.253,0.105C361.87,294.542,361.889,294.535,361.912,294.528z"/>
			<path d="M375.466,258.795c-2.94-5.018-8.161-8.726-13.879-9.816c-5.694-1.078-9.78,1.947-13.724,5.61
				c-1.162,1.185-18.382,10.059-17.44,22.832c0.214,2.911,1.502,5.596,2.778,8.185c1.693,3.394,3.788,6.687,6.871,8.979
				c7.118,5.424,18.177,7.796,26.112,2.834c4.908-3.777,8.698-9.191,10.383-15.166c1.148-3.846,1.04-7.891,1.133-11.863
				C377.648,266.44,377.38,262.337,375.466,258.795z M373.086,273.011c-0.159,3.376-0.011,4.306-0.6,6.771
				c-0.805,3.886-2.783,7.192-4.202,9.044c-1.287,1.516-2.544,3.078-4.052,4.384c-0.55,0.408-1.137,0.764-1.753,1.061
				c-0.125,0.061-0.253,0.115-0.379,0.173c0.149-0.051,0.18-0.04-0.174,0.079c-0.066,0.029-0.129,0.061-0.195,0.089
				c0.037-0.023,0.077-0.044,0.117-0.063c-2.977,0.957-3.085,1.054-6.067,0.961c-2.946-0.143-4.383-0.313-7.798-1.619
				c-1.606-0.727-3.21-1.491-4.646-2.521c-0.07-0.05-0.138-0.103-0.207-0.154c0.007,0.017-0.099-0.05-0.289-0.215
				c-0.024-0.018-0.049-0.036-0.073-0.054c0.018,0.012,0.03,0.021,0.047,0.032c-0.022-0.019-0.041-0.035-0.065-0.057
				c-1.055-0.873-2.04-1.839-2.888-2.915c-1.267-1.86-4.54-7.272-5.036-11.092c-1.449-10.138,13.787-17.009,15.657-18.639
				c2.279-1.988,2.582-2.365,4.531-3.633c1.589-0.908,1.135-0.753,3.43-1.285c3.76-0.487,9.563,2.605,12.346,6.532
				C373.331,263.798,373.114,267.038,373.086,273.011z"/>
			<path d="M342.815,290.978c0.009,0.008,0.017,0.015,0.025,0.022c0.095,0.073,0.192,0.144,0.289,0.215
				C343.123,291.2,343.026,291.117,342.815,290.978z"/>
		</g>
	</g>
</g>
</svg>
